#N canvas 84 405 1030 846 10;
#X obj 109 45 loadbang;
#X obj 110 126 bng 15 250 50 0 empty empty empty 17 7 0 10 #fcfcfc
#000000 #000000;
#X obj 88 46 tgl 15 0 empty empty empty 17 7 0 10 #fcfcfc #000000 #000000
0 1;
#X msg 110 151 54;
#X obj 110 175 makenote 100 250;
#X obj 110 103 metro 1000;
#X obj 104 222 noteout 1, f 11;
#X connect 0 0 5 0;
#X connect 1 0 3 0;
#X connect 2 0 5 0;
#X connect 3 0 4 0;
#X connect 4 0 6 0;
#X connect 4 1 6 1;
#X connect 5 0 1 0;
