#N canvas 246 418 1030 846 10;
#X obj 109 45 loadbang;
#X obj 110 124 bng 15 250 50 0 empty empty empty 17 7 0 10 #fcfcfc
#000000 #000000;
#X floatatom 110 146 5 0 0 0 - - - 0;
#X obj 88 46 tgl 15 0 empty empty empty 17 7 0 10 #fcfcfc #000000 #000000
0 1;
#X obj 110 170 makenote 100 500;
#X obj 110 195 noteout, f 11;
#X obj 110 103 metro 2000;
#X connect 0 0 6 0;
#X connect 1 0 2 0;
#X connect 2 0 4 0;
#X connect 3 0 6 0;
#X connect 4 0 5 0;
#X connect 6 0 1 0;
