#N canvas 227 239 604 585 10;
#X obj 23 138 bng 15 250 50 0 empty empty empty 17 7 0 10 #fcfcfc #000000 #000000;
#X obj 23 187 makenote 100 250, f 17;
#X msg 23 163 64;
#X obj 23 227 noteout, f 10;
#X obj 22 21 serialosc, f 11;
#X connect 0 0 2 0;
#X connect 1 0 3 0;
#X connect 1 1 3 1;
#X connect 2 0 1 0;
