#N canvas 249 23 996 786 10;
#X obj 84 324 serialosc;
#X floatatom 173 374 5 0 0 0 - - - 0;
#X floatatom 208 374 5 0 0 0 - - - 0;
#X floatatom 244 374 5 0 0 0 - - - 0;
#X msg 126 221 /monome/grid/led/set \$1 \$2 \$3;
#X msg 84 62 /monome/grid/led/set 2 0 1;
#X msg 150 285 /monome/grid/led/all 0;
#X msg 126 110 1 1 1;
#X obj 193 153 tgl 15 0 empty empty empty 17 7 0 10 #fcfcfc #000000
#000000 0 1;
#X msg 173 110 1 1 0;
#X msg 193 173 4 0 \$1;
#X obj 219 440 route 0;
#X obj 219 468 route 0;
#X obj 219 496 sel 1;
#X obj 219 521 tgl 15 0 empty empty empty 17 7 0 10 #fcfcfc #000000
#000000 0 1;
#X msg 219 544 /monome/grid/led/set 0 0 \$1;
#X text 276 438 pass only first column;
#X text 274 468 pass only first row;
#X text 267 495 output only for key down;
#X text 24 462 http://monome.org;
#X text 24 445 grid studies 2-4;
#X obj 99 349 unpack s s s f f f, f 21;
#X obj 57 350 print;
#X connect 0 0 21 0;
#X connect 0 0 22 0;
#X connect 4 0 0 0;
#X connect 5 0 0 0;
#X connect 6 0 0 0;
#X connect 7 0 4 0;
#X connect 8 0 10 0;
#X connect 9 0 4 0;
#X connect 10 0 4 0;
#X connect 11 0 12 0;
#X connect 12 0 13 0;
#X connect 13 0 14 0;
#X connect 14 0 15 0;
#X connect 15 0 0 0;
#X connect 21 3 1 0;
#X connect 21 4 2 0;
#X connect 21 5 3 0;
