#N canvas 248 23 461 461 10;
#X obj 54 80 loadbang;
#X obj 54 127 bng 15 250 50 0 empty empty empty 17 7 0 10 #fcfcfc #000000 #000000;
#X obj 33 81 tgl 15 0 empty empty empty 17 7 0 10 #fcfcfc #000000 #000000 0 1;
#X obj 54 176 makenote 100 250, f 17;
#X obj 54 104 metro 1000;
#X msg 54 152 64;
#X obj 53 206 noteout, f 8;
#X text 19 16 Test the Midi Out Send midi note 64 every second;
#X connect 0 0 4 0;
#X connect 1 0 5 0;
#X connect 2 0 4 0;
#X connect 3 0 6 0;
#X connect 3 1 6 1;
#X connect 4 0 1 0;
#X connect 5 0 3 0;
