#N canvas 84 405 1030 846 10;
#X obj 109 45 loadbang;
#X obj 109 92 bng 15 250 50 0 empty empty empty 17 7 0 10 #fcfcfc #000000
#000000;
#X obj 88 46 tgl 15 0 empty empty empty 17 7 0 10 #fcfcfc #000000 #000000
0 1;
#X obj 109 141 makenote 100 250, f 17;
#X obj 109 69 metro 1000;
#X obj 108 171 noteout 1, f 11;
#X msg 109 117 64;
#X connect 0 0 4 0;
#X connect 1 0 6 0;
#X connect 2 0 4 0;
#X connect 3 0 5 0;
#X connect 3 1 5 1;
#X connect 4 0 1 0;
#X connect 6 0 3 0;
