#N canvas 495 23 355 197 12;
#X obj 18 72 serialosc;
#X obj 17 42 bng 15 250 50 0 empty empty empty 17 7 0 10 #fcfcfc #000000 #000000;
#X obj 115 124 print;
#X text 12 12 Print serialosc output;
#X connect 0 0 2 0;
#X connect 0 1 2 0;
#X connect 1 0 0 0;
